<svg width="42" height="39" viewBox="0 0 42 39" fill="none" xmlns="http://www.w3.org/2000/svg">
<rect x="0.5" y="0.5" width="41" height="38" rx="4.5" stroke="#feb730"/>
<path d="M18.1329 17L21.6249 7.352H22.0089L18.5169 17H18.1329ZM16.4529 17L19.9449 7.352H20.3169L16.8369 17H16.4529ZM17.2929 17L20.7729 7.352H21.1689L17.6769 17H17.2929ZM25.1649 17L22.0329 8.348L22.2249 7.808L25.5489 17H25.1649ZM24.3249 17L21.6249 9.524L21.8049 8.972L24.7089 17H24.3249ZM23.4849 17L21.2049 10.688L21.3969 10.148L23.8689 17H23.4849ZM20.0889 13.808L20.2209 13.448H21.8049L21.9369 13.808H20.0889ZM19.8009 14.612L19.9329 14.252H22.0929L22.2249 14.612H19.8009ZM19.5129 15.404L19.6449 15.044H22.3809L22.5129 15.404H19.5129ZM17.7289 31V21.352H18.0889V31H17.7289ZM16.1449 31V21.352H16.5049V31H16.1449ZM16.9369 31V21.352H17.2969V31H16.9369ZM25.4929 31V21.352H25.8529V31H25.4929ZM23.9089 31V21.352H24.2689V31H23.9089ZM24.7009 31V21.352H25.0609V31H24.7009ZM21.4489 25.432L21.2329 25.108L23.4769 21.856V22.492L21.4489 25.432ZM21.9289 27.508L18.5209 22.636V22.024L22.1569 27.196L21.9289 27.508ZM21.9409 26.128L21.7249 25.804L23.4769 23.308V23.932L21.9409 26.128ZM21.4489 28.216L18.5209 24.04V23.404L21.6649 27.892L21.4489 28.216ZM22.4209 26.812L22.2049 26.5L23.4769 24.688V25.312L22.4209 26.812ZM20.9689 28.9L18.5209 25.42V24.784L21.1849 28.588L20.9689 28.9Z" fill="#feb730"/>
</svg>
